HIERARCHY
ROOT hip
{
  OFFSET 0 0 0
  CHANNELS 6 Xposition Yposition Zposition Zrotation Yrotation Xrotation
  JOINT abdomen
  {
    OFFSET 0 20.6881 -0.73152
    CHANNELS 3 Zrotation Xrotation Yrotation
    JOINT chest
    {
      OFFSET 0 11.7043 -0.48768
      CHANNELS 3 Zrotation Xrotation Yrotation
      JOINT neck
      {
        OFFSET 0 22.1894 -2.19456
        CHANNELS 3 Zrotation Xrotation Yrotation
        JOINT head
        {
          OFFSET -0.24384 7.07133 1.2192
          CHANNELS 3 Zrotation Xrotation Yrotation
          JOINT leftEye
          {
            OFFSET 4.14528 8.04674 8.04672
            CHANNELS 3 Zrotation Xrotation Yrotation
            End Site
            {
              OFFSET 1 0 0
            }
          }
          JOINT rightEye
          {
            OFFSET -3.6576 8.04674 8.04672
            CHANNELS 3 Zrotation Xrotation Yrotation
            End Site
            {
              OFFSET 1 0 0
            }
          }
        }
      }
      JOINT rCollar
      {
        OFFSET -2.68224 19.2634 -4.8768
        CHANNELS 3 Zrotation Xrotation Yrotation
        JOINT rShldr
        {
          OFFSET -8.77824 -1.95073 1.46304
          CHANNELS 3 Zrotation Xrotation Yrotation
          JOINT rForeArm
          {
            OFFSET -28.1742 -1.7115 0.48768
            CHANNELS 3 Zrotation Xrotation Yrotation
            JOINT rHand
            {
              OFFSET -22.5879 0.773209 7.07136
              CHANNELS 3 Zrotation Xrotation Yrotation
              JOINT rThumb1
              {
                OFFSET -1.2192 -0.487915 3.41376
                CHANNELS 3 Zrotation Xrotation Yrotation
                JOINT rThumb2
                {
                  OFFSET -3.37035 -0.52449 3.41376
                  CHANNELS 3 Zrotation Xrotation Yrotation
                  End Site
                  {
                    OFFSET -1.78271 -1.18214 1.43049
                  }
                }
              }
              JOINT rIndex1
              {
                OFFSET -7.75947 0.938293 5.60832
                CHANNELS 3 Zrotation Xrotation Yrotation
                JOINT rIndex2
                {
                  OFFSET -2.54057 -0.884171 1.56538
                  CHANNELS 3 Zrotation Xrotation Yrotation
                  End Site
                  {
                    OFFSET -1.62519 -0.234802 1.16502
                  }
                }
              }
              JOINT rMid1
              {
                OFFSET -8.24714 1.18213 3.41376
                CHANNELS 3 Zrotation Xrotation Yrotation
                JOINT rMid2
                {
                  OFFSET -3.10165 -0.590103 1.0647
                  CHANNELS 3 Zrotation Xrotation Yrotation
                  End Site
                  {
                    OFFSET -2.48547 -0.328903 0.83742
                  }
                }
              }
              JOINT rRing1
              {
                OFFSET -8.82822 0.546677 1.51678
                CHANNELS 3 Zrotation Xrotation Yrotation
                JOINT rRing2
                {
                  OFFSET -2.60934 -0.819778 -0.0198488
                  CHANNELS 3 Zrotation Xrotation Yrotation
                  End Site
                  {
                    OFFSET -2.33842 -0.294052 0.168128
                  }
                }
              }
              JOINT rPinky1
              {
                OFFSET -8.27202 -0.0477905 -0.4584
                CHANNELS 3 Zrotation Xrotation Yrotation
                JOINT rPinky2
                {
                  OFFSET -1.82734 -0.647385 -0.700984
                  CHANNELS 3 Zrotation Xrotation Yrotation
                  End Site
                  {
                    OFFSET -1.69225 -0.51767 -0.607171
                  }
                }
              }
            }
          }
        }
      }
      JOINT lCollar
      {
        OFFSET 2.68224 19.2634 -4.8768
        CHANNELS 3 Zrotation Xrotation Yrotation
        JOINT lShldr
        {
          OFFSET 8.77824 -1.95073 1.46304
          CHANNELS 3 Zrotation Xrotation Yrotation
          JOINT lForeArm
          {
            OFFSET 28.1742 -1.7115 0.48768
            CHANNELS 3 Zrotation Xrotation Yrotation
            JOINT lHand
            {
              OFFSET 22.5879 0.773209 7.07136
              CHANNELS 3 Zrotation Xrotation Yrotation
              JOINT lThumb1
              {
                OFFSET 1.2192 -0.487915 3.41376
                CHANNELS 3 Zrotation Xrotation Yrotation
                JOINT lThumb2
                {
                  OFFSET 3.37035 -0.52449 3.41376
                  CHANNELS 3 Zrotation Xrotation Yrotation
                  End Site
                  {
                    OFFSET 1.78271 -1.18214 1.43049
                  }
                }
              }
              JOINT lIndex1
              {
                OFFSET 7.75947 0.938293 5.60832
                CHANNELS 3 Zrotation Xrotation Yrotation
                JOINT lIndex2
                {
                  OFFSET 2.54057 -0.884171 1.56538
                  CHANNELS 3 Zrotation Xrotation Yrotation
                  End Site
                  {
                    OFFSET 1.62519 -0.234802 1.16502
                  }
                }
              }
              JOINT lMid1
              {
                OFFSET 8.24714 1.18213 3.41376
                CHANNELS 3 Zrotation Xrotation Yrotation
                JOINT lMid2
                {
                  OFFSET 3.10165 -0.590103 1.0647
                  CHANNELS 3 Zrotation Xrotation Yrotation
                  End Site
                  {
                    OFFSET 2.48547 -0.328903 0.83742
                  }
                }
              }
              JOINT lRing1
              {
                OFFSET 8.82822 0.546677 1.51678
                CHANNELS 3 Zrotation Xrotation Yrotation
                JOINT lRing2
                {
                  OFFSET 2.60934 -0.819778 -0.0198488
                  CHANNELS 3 Zrotation Xrotation Yrotation
                  End Site
                  {
                    OFFSET 2.33842 -0.294052 0.168128
                  }
                }
              }
              JOINT lPinky1
              {
                OFFSET 8.27202 -0.0477905 -0.4584
                CHANNELS 3 Zrotation Xrotation Yrotation
                JOINT lPinky2
                {
                  OFFSET 1.82734 -0.647385 -0.700984
                  CHANNELS 3 Zrotation Xrotation Yrotation
                  End Site
                  {
                    OFFSET 1.69225 -0.51767 -0.607171
                  }
                }
              }
            }
          }
        }
      }
    }
  }
  JOINT rButtock
  {
    OFFSET -8.77824 4.35084 1.2192
    CHANNELS 3 Zrotation Xrotation Yrotation
    JOINT rThigh
    {
      OFFSET 0 -1.70687 -2.19456
      CHANNELS 3 Zrotation Xrotation Yrotation
      JOINT rShin
      {
        OFFSET 0 -36.8199 0.73152
        CHANNELS 3 Zrotation Xrotation Yrotation
        JOINT rFoot
        {
          OFFSET 0.73152 -45.1104 -5.12064
          CHANNELS 3 Zrotation Xrotation Yrotation
          End Site
          {
            OFFSET -1.1221 -3.69964 12.103
          }
        }
      }
    }
  }
  JOINT lButtock
  {
    OFFSET 8.77824 4.35084 1.2192
    CHANNELS 3 Zrotation Xrotation Yrotation
    JOINT lThigh
    {
      OFFSET 0 -1.70687 -2.19456
      CHANNELS 3 Zrotation Xrotation Yrotation
      JOINT lShin
      {
        OFFSET 0 -36.8199 0.73152
        CHANNELS 3 Zrotation Xrotation Yrotation
        JOINT lFoot
        {
          OFFSET -0.73152 -45.1104 -5.12064
          CHANNELS 3 Zrotation Xrotation Yrotation
          End Site
          {
            OFFSET 1.1221 -3.69964 12.103
          }
        }
      }
    }
  }
}
MOTION
Frames:	4
Frame Time:	0.00833333
9.34614 84.9327 -27.4435 -2.5308 -4.4 9.0679 -5.06172 11.3921 3.15804 3.71898 -10.1586 0.94376 7.76595 -11.7363 2.83624 -8.04244 0.626582 1.9819 -0.0 0.0 0.0 -0.0 0.0 0.0 -7.81716e-15 1.30576e-13 -5.18098e-14 73.0945 37.4347 -26.6211 -27.9892 -30.5669 68.1879 -0.103185 -9.1307 -1.2943 -2.78587e-10 -1.11621e-09 1.55939e-09 -4.93496e-10 -1.90252e-09 2.69296e-09 -2.78582e-10 -1.1162e-09 1.55937e-09 7.73091 5.47488 0.417314 -2.7859e-10 -1.11621e-09 1.55939e-09 2.90554 0.965183 0.102902 -2.7859e-10 -1.11621e-09 1.55939e-09 10.2786 0.731801 0.0259123 -2.78587e-10 -1.1162e-09 1.5594e-09 2.22167 -0.733487 -0.20892 -8.02402e-15 1.30577e-13 -5.21996e-14 -70.5958 40.051 3.08495 22.2204 -16.0925 -44.3867 0.128114 -10.1785 1.44575 5.93601e-10 6.77585e-10 -5.90728e-10 1.03397e-09 1.18495e-09 -1.01734e-09 5.93596e-10 6.7759e-10 -5.90719e-10 -7.73091 5.47488 -0.417314 5.93603e-10 6.77587e-10 -5.90726e-10 -2.90554 0.965183 -0.102902 5.93599e-10 6.77587e-10 -5.90729e-10 -10.2786 0.731801 -0.0259123 5.93606e-10 6.77589e-10 -5.90737e-10 -2.22167 -0.733487 0.20892 -2.03217e-16 0.0 -3.88251e-19 -30.498 -49.9628 -25.6718 -67.9104 88.8618 68.3797 -2.17231 0.982292 -8.75105 2.03217e-16 0.0 3.88251e-19 -8.19793 0.119424 -2.31973 -0.0586462 24.3252 -0.574337 -0.476371 9.5513 7.42766
9.37997 85.8935 -25.9373 -2.7789 -4.224 8.6804 -4.48182 11.2688 3.03826 3.68555 -9.92627 0.912865 7.67911 -11.5289 2.79483 -8.12855 0.868357 1.98469 -0.0 0.0 0.0 -0.0 0.0 0.0 1.19336e-14 1.39944e-13 -2.18663e-14 73.4085 37.8427 -27.4149 -27.9336 -30.2306 67.6169 -0.0984591 -8.91407 -1.2631 -4.62629e-10 -9.2912e-10 1.7817e-09 -8.13872e-10 -1.57395e-09 3.07685e-09 -4.62623e-10 -9.29118e-10 1.78168e-09 7.73091 5.47488 0.417314 -4.62632e-10 -9.29121e-10 1.7817e-09 2.90554 0.965183 0.102902 -4.62631e-10 -9.2912e-10 1.7817e-09 10.2786 0.731801 0.0259123 -4.62627e-10 -9.29118e-10 1.78171e-09 2.22167 -0.733487 -0.20892 1.17226e-14 1.39944e-13 -2.22639e-14 -71.5088 40.0223 4.05218 22.0519 -15.8355 -43.93 0.115389 -9.64163 1.36811 4.48e-10 3.69167e-10 -8.48915e-10 7.85758e-10 6.55919e-10 -1.46444e-09 4.47995e-10 3.69172e-10 -8.48906e-10 -7.73091 5.47488 -0.417314 4.48001e-10 3.69167e-10 -8.48912e-10 -2.90554 0.965183 -0.102902 4.47997e-10 3.69167e-10 -8.48915e-10 -10.2786 0.731801 -0.0259123 4.48005e-10 3.69168e-10 -8.48925e-10 -2.22167 -0.733487 0.20892 -2.03217e-16 0.0 -3.88251e-19 -29.8361 -48.9605 -25.3434 -42.054 88.4434 42.5115 -2.05563 1.64281 -8.74375 2.03217e-16 0.0 3.88251e-19 -7.86833 0.234047 -2.56439 -0.0448307 24.7997 -0.55679 -0.762808 13.7848 6.158
9.39349 86.7883 -24.4833 -3.0365 -3.9069 8.3119 -3.83101 11.1934 2.8194 3.6498 -9.73576 0.860168 7.57522 -11.254 2.72732 -8.22994 0.991716 1.94269 -0.0 0.0 0.0 -0.0 0.0 0.0 6.70214e-14 1.24401e-13 -1.55918e-14 73.8264 38.2105 -28.1435 -27.855 -29.7909 66.8827 -0.100673 -9.00866 -1.27675 -6.24304e-10 -3.87084e-10 1.55157e-09 -1.0915e-09 -6.39275e-10 2.67824e-09 -6.24298e-10 -3.87081e-10 1.55155e-09 7.73091 5.47488 0.417314 -6.24307e-10 -3.87084e-10 1.55157e-09 2.90554 0.965183 0.102902 -6.24303e-10 -3.87084e-10 1.55157e-09 10.2786 0.731801 0.0259123 -6.24303e-10 -3.87084e-10 1.55158e-09 2.22167 -0.733487 -0.20892 6.68062e-14 1.24401e-13 -1.59839e-14 -72.3434 39.9749 4.95294 21.8888 -15.5913 -43.4906 0.1053 -9.20965 1.30574 -1.28061e-10 -3.21577e-10 -8.44393e-10 -2.09787e-10 -5.40519e-10 -1.45993e-09 -1.28067e-10 -3.21574e-10 -8.44383e-10 -7.73091 5.47488 -0.417314 -1.28061e-10 -3.21579e-10 -8.44391e-10 -2.90554 0.965183 -0.102902 -1.28064e-10 -3.2158e-10 -8.44393e-10 -10.2786 0.731801 -0.0259123 -1.28055e-10 -3.21579e-10 -8.44403e-10 -2.22167 -0.733487 0.20892 -2.03217e-16 0.0 -3.88251e-19 -29.0266 -47.8241 -24.9551 -27.0499 87.7387 27.4906 -1.92698 2.32641 -8.73353 2.03217e-16 0.0 3.88251e-19 -7.45578 -0.274373 -2.79727 -0.0119244 26.1199 -0.54772 -0.838618 17.8561 4.84096
9.39881 87.7049 -23.0435 -3.3203 -3.4766 7.9477 -3.11475 11.1619 2.51145 3.61564 -9.56695 0.787087 7.45216 -10.9206 2.63659 -8.33331 1.01684 1.86369 -0.0 0.0 0.0 -0.0 0.0 0.0 1.47184e-13 9.07446e-14 -2.17328e-14 74.322 38.55 -28.7957 -27.7409 -29.2261 65.9882 -0.10817 -9.33785 -1.32422 -7.8371e-10 4.10404e-10 1.02424e-09 -1.36257e-09 7.32117e-10 1.76562e-09 -7.83702e-10 4.10409e-10 1.02423e-09 7.73091 5.47488 0.417314 -7.83711e-10 4.10406e-10 1.02424e-09 2.90554 0.965183 0.102902 -7.83702e-10 4.10406e-10 1.02424e-09 10.2786 0.731801 0.0259123 -7.8371e-10 4.10405e-10 1.02425e-09 2.22167 -0.733487 -0.20892 1.46965e-13 9.07445e-14 -2.21117e-14 -73.1241 39.8933 5.79427 21.7275 -15.3538 -43.0583 0.0961487 -8.81023 1.24816 -1.00647e-09 -1.29855e-09 -6.79387e-10 -1.72992e-09 -2.23588e-09 -1.17976e-09 -1.00648e-09 -1.29855e-09 -6.79377e-10 -7.73091 5.47488 -0.417314 -1.00647e-09 -1.29855e-09 -6.79387e-10 -2.90554 0.965183 -0.102902 -1.00647e-09 -1.29855e-09 -6.79388e-10 -10.2786 0.731801 -0.0259123 -1.00646e-09 -1.29855e-09 -6.79397e-10 -2.22167 -0.733487 0.20892 -2.03217e-16 0.0 -3.88251e-19 -28.0863 -46.5331 -24.5208 -18.6043 86.8271 19.024 -1.78864 3.04346 -8.74166 2.03217e-16 0.0 3.88251e-19 -6.9786 -1.31964 -3.03477 0.036437 28.1578 -0.545869 -0.697146 21.8978 3.43595
